<svg width="1306" height="641" xmlns="http://www.w3.org/2000/svg" xmlns:xlink="http://www.w3.org/1999/xlink" xml:space="preserve" overflow="hidden"><g transform="translate(9 -857)"><g><path d="M117 970.082C117 909.285 166.285 860 227.082 860L1117.92 860C1178.71 860 1228 909.285 1228 970.082L1228 1182.92C1228 1243.71 1178.71 1293 1117.92 1293L227.082 1293C166.285 1293 117 1243.71 117 1182.92Z" fill="#FFFFFF" fill-rule="evenodd" fill-opacity="1"/><g><g><g><path d="M255.571 170.496C261.796 195.741 235.858 220.641 210.266 210.266 188.825 202.658 180.525 177.758 195.396 156.317 228.941 111.704 204.387 41.5 148.708 17.2917 173.954 65.0166 135.221 108.937 113.087 127.267 90.9541 145.596 76.0833 164.617 71.5874 175.683 49.1083 230.325 82.6541 282.546 105.479 294.996 95.1041 271.479 85.4208 226.521 126.229 184.329 126.229 184.329 114.471 229.287 140.062 260.412 165.654 291.537 165.308 314.708 165.308 314.708 205.079 314.708 242.775 290.846 258.683 251.766 270.787 228.596 271.825 191.937 255.571 170.496" fill="#C00000" fill-rule="nonzero" fill-opacity="0.5" transform="matrix(1 0 0 1 92.0001 860)"/></g></g></g><text fill="#000000" fill-opacity="1" font-family="Futura,Futura_MSFontService,sans-serif" font-style="normal" font-variant="normal" font-weight="500" font-stretch="normal" font-size="303" text-anchor="start" direction="ltr" writing-mode="lr-tb" unicode-bidi="normal" text-decoration="none" transform="matrix(1 0 0 1 174.864 1240)">P</text><text fill="#000000" fill-opacity="1" font-family="Futura,Futura_MSFontService,sans-serif" font-style="normal" font-variant="normal" font-weight="500" font-stretch="normal" font-size="183" text-anchor="start" direction="ltr" writing-mode="lr-tb" unicode-bidi="normal" text-decoration="none" transform="matrix(1 0 0 1 338.145 1240)">ELE</text><text fill="#000000" fill-opacity="1" font-family="Futura,Futura_MSFontService,sans-serif" font-style="normal" font-variant="normal" font-weight="500" font-stretch="normal" font-size="303" text-anchor="start" direction="ltr" writing-mode="lr-tb" unicode-bidi="normal" text-decoration="none" transform="matrix(1 0 0 1 626.895 1240)">S</text><text fill="#000000" fill-opacity="1" font-family="Futura,Futura_MSFontService,sans-serif" font-style="normal" font-variant="normal" font-weight="500" font-stretch="normal" font-size="183" text-anchor="start" direction="ltr" writing-mode="lr-tb" unicode-bidi="normal" text-decoration="none" transform="matrix(1 0 0 1 803.353 1240)">UITE</text></g></g></svg>